<?xml version="1.0" encoding="UTF-8"?>
<svg id="_图层_1" data-name="图层_1" xmlns="http://www.w3.org/2000/svg" width="8.4666665mm" height="8.4666665mm" version="1.1" viewBox="0 0 24 24">
  <!-- Generator: Adobe Illustrator 29.4.0, SVG Export Plug-In . SVG Version: 2.1.0 Build 152)  -->
  <path d="M0-.0000146h24v24H0V-.0000146Z" fill="none"/>
  <g>
    <path d="M5.1158486,6.3990438c0-.6606211.5355393-1.1961603,1.1961603-1.1961603h11.3759821c.6606216,0,1.1961603.5355393,1.1961603,1.1961603v4.2328144h-1.1961603v-4.2328144H6.3120089v11.7954389h4.1990202v1.1961603h-4.1990202c-.6606211,0-1.1961603-.5355387-1.1961603-1.1961603V6.3990438Z"/>
    <path d="M14.121063,18.8347058l-.7132235-.7132235c-1.6933966-1.5150915-2.8528951-2.4962829-2.8528951-3.9227299,0-1.2481419.9811924-2.1396716,2.1396706-2.1396716.5349174,0,.9801731.1783061,1.4264471.446274.446274-.2679688.8915297-.446274,1.4264471-.446274,1.2481419,0,2.1396716.9811924,2.1396716,2.1396716,0,1.3378037-1.1584792,2.4076394-2.8528951,3.9227309l-.7132235.7132235.000001-.000001ZM14.1206863,20.0181214c.2439148,0,.4775344-.0966156.6501754-.2692565l.7317443-.7333281c1.814314-1.6226667,3.3815455-3.0243846,3.3815455-4.913932,0-1.8087705-1.4167646-3.2255351-3.2255351-3.2255351-.6145385,0-1.1324614.1670974-1.53793.3575569-.4046768-.1904594-.9218077-.3575569-1.5371381-.3575569-1.8087705,0-3.2255351,1.4167646-3.2255351,3.2255351,0,1.8927151,1.3355917,3.0853633,3.1839587,4.7365395l.1599701.1417557.7685691.768965c.171849.172641.4062606.2692565.6501754.2692565h0Z"/>
  </g>
</svg>