<svg role="img" viewBox="0 0 24 24" xmlns="http://www.w3.org/2000/svg" id="Logseq--Streamline-Simple-Icons" height="24" width="24">
  <desc>
    Logseq Streamline Icon: https://streamlinehq.com
  </desc>
  <title>Logseq</title>
  <path d="M19.3 9.838c-2.677 -1.366 -5.467 -1.56 -8.316 -0.607 -1.738 0.58 -3.197 1.58 -4.267 3.088 -1.031 1.452 -1.45 3.071 -1.184 4.837 0.268 1.781 1.164 3.228 2.505 4.4C9.96 23.231 12.24 23.942 15.092 24c0.41 -0.053 1.157 -0.103 1.883 -0.255 2.004 -0.418 3.754 -1.325 5.08 -2.915 1.621 -1.942 2.108 -4.148 1.272 -6.562 -0.704 -2.034 -2.138 -3.467 -4.027 -4.43ZM7.515 6.295c0.507 -2.162 -0.88 -4.664 -2.988 -5.37 -1.106 -0.37 -2.156 -0.267 -3.075 0.492C0.61 2.114 0.294 3.064 0.271 4.146c0.009 0.135 0.016 0.285 0.029 0.435 0.01 0.102 0.021 0.205 0.042 0.305 0.351 1.703 1.262 2.98 2.9 3.636 1.912 0.766 3.808 -0.244 4.273 -2.227Zm4.064 -1.146c1.075 0.377 2.152 0.31 3.22 -0.033 0.94 -0.3 1.755 -0.793 2.341 -1.609 0.803 -1.117 0.5 -2.387 -0.717 -3.027 -0.6 -0.317 -1.246 -0.438 -1.927 -0.48 -0.47 0.076 -0.95 0.117 -1.41 0.234 -1.068 0.27 -2.002 0.781 -2.653 1.7 -0.495 0.697 -0.64 1.45 -0.174 2.227 0.303 0.504 0.779 0.799 1.32 0.988Z" fill="#000000" stroke-width="1"></path>
</svg>